<svg viewBox="0 0 24 24" xmlns="http://www.w3.org/2000/svg" width="24" height="24">
  <path d="M22.394 6c-.167-.29-.398-.543-.652-.69L12.926.22c-.509-.294-1.34-.294-1.848 0L2.26 5.31c-.508.293-.923 1.013-.923 1.6v10.18c0 .294.104.62.271.91.167.29.398.543.652.689l8.816 5.091c.508.293 1.34.293 1.848 0l8.816-5.091c.254-.146.485-.399.652-.689.167-.29.27-.616.27-.91V6.91c.003-.294-.1-.62-.268-.91zM12 19.109c-3.92 0-7.109-3.189-7.109-7.109S8.08 4.891 12 4.891s7.109 3.189 7.109 7.109-3.189 7.109-7.109 7.109zm4.846-7.934h-2.457v2.457h-1.389v-2.457h-2.457v-1.389h2.457V7.329h1.389v2.457h2.457v1.389zm-4.846 5.479c2.761 0 5-2.239 5-5s-2.239-5-5-5-5 2.239-5 5 2.239 5 5 5z" fill="currentColor"/>
</svg>